<?xml version="1.0" encoding="UTF-8"?>
<svg id="Capa_2" data-name="Capa 2" xmlns="http://www.w3.org/2000/svg" viewBox="0 0 256 256">
  <g id="capa">
    <g id="logo">
      <rect width="256" height="256" fill="#1a2d33"/>
      <g>
        <path d="M110.909,163.48c-.358,0-.65-.291-.65-.65v-61.318c0-.358.291-.65.65-.65s.65.291.65.65v61.318c0,.358-.291.65-.65.65Z" fill="#81c9b2"/>
        <g>
          <g>
            <path d="M171.223,124.541c-.288-.76-1.406-.784-1.863-1.193-.37-.335-1.248-.953-1.481-2.162-.071-.378.083-.768.39-1,.957-.717,1.733-1.682,2.241-2.804.429-.941.666-1.997.666-3.107,0-1.103-.236-2.15-.658-3.084-1.036-2.304-3.194-3.95-5.738-4.167h-5.656c-.055-.016-.114-.024-.177-.024h-5.628c-.425,0-.744.394-.654.811l.311,1.465c.276,1.28.41,2.584.41,3.895v8.353c0,1.438-.165,2.871-.496,4.269l-.205.878c-.098.421.221.827.654.827h5.589c.433,0,.752-.406.654-.827l-.205-.878c-.256-1.087-.414-2.194-.473-3.308-.028-.508.374-.933.878-.933h2.666c.374,0,.705.252.796.618.465,1.843,1.638,4.202,2.804,4.935.764.48,2.769.378,3.541-.055.654-.37,1.95-1.674,1.634-2.509ZM159.667,117.388c-.429,0-.78-.351-.78-.78v-3.434c0-.417.016-.835.043-1.252.028-.41.37-.725.78-.725h3.43c1.631,0,2.954,1.386,2.954,3.096s-1.323,3.096-2.954,3.096h-3.474Z" fill="#fff"/>
            <path d="M200.135,132.8h-5.396c-.39,0-.886.394-1.028.811l-.488,1.465c-.161.477-.339.957-.536,1.441-.331.811-.717,1.634-1.15,2.454l-1.091,2.064c-.173.323-.638.323-.807,0l-1.091-2.064c-.433-.819-.819-1.642-1.15-2.454-.197-.484-.374-.965-.536-1.441l-.492-1.465c-.142-.417-.638-.811-1.028-.811h-5.396c-.39,0-.473.394-.169.811l1.059,1.465c.926,1.28,1.741,2.584,2.434,3.895l3.285,6.207c.666,1.256.957,2.674.831,4.092-.075.843-.173,1.737-.299,2.324l-.189.878c-.091.421.201.827.595.827h5.085c.394,0,.685-.406.595-.827l-.189-.878c-.126-.587-.224-1.481-.299-2.324-.122-1.414.169-2.836.835-4.092l3.285-6.207c.693-1.308,1.508-2.615,2.434-3.895l1.059-1.465c.307-.417.228-.811-.161-.811Z" fill="#fff"/>
            <path d="M222.824,152.472l-.563-.878c-.894-1.398-1.654-2.832-2.265-4.269l-5.664-13.347c-.303-.713-1-1.178-1.776-1.178h-2.525c-.776,0-1.473.465-1.776,1.178l-5.664,13.347c-.61,1.438-1.371,2.871-2.265,4.269l-.563.878c-.268.421-.15.827.244.827h5.088c.394,0,.859-.406.945-.827l.185-.878c.134-.63.295-1.264.496-1.906h9.145c.197.642.362,1.276.496,1.906l.185.878c.087.421.551.827.945.827h5.088c.39-.004.508-.406.24-.827ZM208.772,144.528l2.17-5.108c.134-.311.575-.311.705,0l2.17,5.108c.224.528-.165,1.115-.74,1.115h-3.564c-.575,0-.965-.587-.74-1.115Z" fill="#fff"/>
            <path d="M180.746,152.472l-.563-.878c-.894-1.398-1.654-2.832-2.265-4.269l-5.664-13.347c-.303-.713-1-1.178-1.776-1.178h-2.525c-.776,0-1.473.465-1.776,1.178l-5.664,13.347c-.61,1.438-1.371,2.871-2.265,4.269l-.563.878c-.268.421-.15.827.244.827h5.088c.394,0,.859-.406.945-.827l.185-.878c.039-.197.087-.394.134-.591.185-.772.878-1.315,1.67-1.315h6.53c.796,0,1.485.544,1.67,1.315.047.197.091.394.134.591l.185.878c.087.421.551.827.945.827h5.088c.39-.004.508-.406.24-.827ZM166.693,144.528l2.17-5.108c.134-.311.575-.311.705,0l2.17,5.108c.224.528-.165,1.115-.74,1.115h-3.564c-.575,0-.965-.587-.74-1.115Z" fill="#fff"/>
            <path d="M222.824,152.472l-.563-.878c-.894-1.398-1.654-2.832-2.265-4.269l-5.664-13.347c-.303-.713-1-1.178-1.776-1.178h-2.525c-.776,0-1.473.465-1.776,1.178l-5.664,13.347c-.61,1.438-1.371,2.871-2.265,4.269l-.563.878c-.268.421-.15.827.244.827h5.088c.394,0,.859-.406.945-.827l.185-.878c.039-.197.087-.394.134-.591.185-.772.874-1.315,1.67-1.315h6.53c.796,0,1.485.544,1.67,1.315.047.197.091.394.134.591l.185.878c.087.421.551.827.945.827h5.088c.39-.004.508-.406.24-.827ZM208.772,144.528l2.17-5.108c.134-.311.575-.311.705,0l2.17,5.108c.224.528-.165,1.115-.74,1.115h-3.564c-.575,0-.965-.587-.74-1.115Z" fill="#fff"/>
            <path d="M154.843,138.967v8.353c0,1.438.165,2.871.496,4.269l.205.878c.098.421-.221.827-.654.827h-5.128c-.433,0-.752-.406-.654-.827l.205-.878c.331-1.398.496-2.832.496-4.269v-5.604c0-.197-.268-.252-.347-.071l-3.501,7.999c-.953,2.174-4.049,2.15-4.962-.043l-3.478-8.33c-.075-.185-.351-.13-.351.071v5.975c0,1.438.161,5.152.161,5.152.098.421-.221.827-.654.827h-4.584c-.433,0-.752-.406-.654-.827l.209-.878c.327-1.398.496-2.832.496-4.269v-8.353c0-1.308-.138-2.615-.41-3.895l-.311-1.465c-.091-.417.228-.811.658-.811h5.163c.272,0,.5.158.607.382l.016.035,5.057,10.772c.189.398.752.402.945.008l5.281-10.831c.11-.213.335-.366.599-.366h5.163c.425,0,.744.394.658.811l-.311,1.465c-.28,1.28-.417,2.588-.417,3.895Z" fill="#fff"/>
            <path d="M214.298,113.17v8.353c0,1.438.158,2.871.465,4.269l.193.878c.091.421-.205.827-.61.827h-3.623c-.729,0-1.41-.339-1.851-.918l-8.464-11.122v6.065c0,1.438.154,2.871.457,4.269l.189.878c.091.421-.201.827-.603.827h-5.144c-.398,0-.693-.406-.603-.827l.189-.878c.303-1.398.457-2.832.457-4.269v-8.353c0-1.308-.126-2.615-.378-3.895l-.288-1.465c-.083-.417.213-.811.607-.811h3.186c.74,0,1.441.339,1.902.918l8.787,11.024v-5.77c0-1.308-.13-2.615-.386-3.895l-.291-1.465c-.083-.417.213-.811.614-.811h5.258c.402,0,.697.394.614.811l-.291,1.465c-.26,1.28-.386,2.584-.386,3.895Z" fill="#fff"/>
            <path d="M149.963,112.339l-4.569-.658c-.453-.067-.863.28-.882.736-.012.252-.016.5-.016.752v8.353c0,1.438.165,2.871.496,4.269l.209.878c.098.421-.221.827-.654.827h-5.589c-.433,0-.752-.406-.654-.827l.205-.878c.331-1.398.496-2.832.496-4.269v-8.353c0-.252-.004-.5-.016-.752-.02-.457-.425-.803-.882-.736l-4.569.658c-.425.059-.776-.331-.666-.748l.969-3.742c.13-.5.583-.851,1.099-.851h13.615c.52,0,.969.351,1.099.851l.969,3.742c.114.417-.236.807-.662.748Z" fill="#fff"/>
            <path d="M191.262,122.879l-.788,3.1c-.228.894-1.032,1.52-1.953,1.52h-13.915c-.433,0-.752-.406-.654-.827l.205-.878c.331-1.398.496-2.832.496-4.269v-8.353c0-1.308-.138-2.615-.41-3.895l-.311-1.465c-.091-.417.228-.811.654-.811h14.364c.52,0,.969.351,1.099.851l.717,2.769c.161.622-.343,1.217-.985,1.162l-8.468-.74c-.583-.051-1.099.386-1.138.973-.024.386-.035.772-.035,1.158v.772c0,.579.469,1.048,1.048,1.048h7.582c.402,0,.705.366.634.76l-.41,2.241c-.142.788-.827,1.359-1.627,1.359h-6.179c-.579,0-1.048.469-1.048,1.048v1.13c0,.209.004.421.012.63.02.544.449.985.992,1.012,3.619.185,7.452-.642,9.291-1.111.5-.13.953.319.827.819Z" fill="#fff"/>
          </g>
          <g>
            <path d="M132.511,168.773v-6.361h-1.867v-1.969h6.002v1.969h-1.867v6.361h-2.269Z" fill="#81c9b2"/>
            <path d="M138.191,166.084c.339.382.67.67,1,.859.327.189.654.284.981.284.303,0,.551-.083.748-.244s.291-.37.291-.618c0-.276-.083-.488-.252-.642-.169-.15-.551-.303-1.146-.465-.815-.221-1.39-.508-1.729-.859-.339-.354-.508-.835-.508-1.449,0-.796.268-1.445.8-1.95s1.225-.752,2.076-.752c.461,0,.894.063,1.308.185.41.122.8.311,1.17.559l-.713,1.634c-.26-.221-.524-.386-.796-.496s-.54-.169-.803-.169c-.272,0-.496.067-.666.197s-.256.299-.256.504c0,.209.075.374.224.5s.437.244.866.358l.102.028c.926.252,1.536.524,1.827.823.197.205.347.449.449.736.102.288.154.603.154.953,0,.882-.291,1.595-.87,2.131-.579.536-1.355.803-2.32.803-.579,0-1.107-.098-1.583-.295s-.933-.508-1.375-.926l1.02-1.69Z" fill="#81c9b2"/>
            <path d="M145.26,168.773v-8.33h2.292v8.33h-2.292Z" fill="#81c9b2"/>
            <path d="M149.518,168.773v-8.33h2.292v8.33h-2.292Z" fill="#81c9b2"/>
            <path d="M163.661,168.773h-2.123l-.488-3.6c-.035-.256-.067-.536-.095-.847-.028-.311-.055-.65-.075-1.02-.055.354-.158.792-.311,1.319-.035.11-.059.193-.075.244l-1.13,3.903h-1.512l-1.13-3.903c-.016-.051-.039-.134-.067-.244-.158-.528-.264-.965-.311-1.315-.024.315-.051.626-.079.937-.032.311-.067.618-.106.926l-.488,3.6h-2.111l1.284-8.33h2.249l1.256,4.297c.008.032.024.079.047.15.118.382.193.713.221.985.016-.15.043-.311.087-.492.043-.181.098-.398.169-.65l1.268-4.285h2.253l1.268,8.326Z" fill="#81c9b2"/>
            <path d="M165.665,168.773v-8.33h2.292v8.33h-2.292Z" fill="#81c9b2"/>
            <path d="M169.998,168.773v-8.33h2.19l3.147,4.285c.059.087.161.264.299.528.138.264.291.579.457.941-.047-.347-.079-.654-.098-.922s-.032-.508-.032-.717v-4.112h2.178v8.33h-2.178l-3.147-4.301c-.063-.087-.165-.264-.303-.528-.138-.264-.288-.575-.453-.929.047.351.079.658.098.926s.032.508.032.717v4.112h-2.19Z" fill="#81c9b2"/>
            <path d="M183.853,168.773v-8.33h2.249v3.785l2.635-3.785h2.647l-3.076,4.061,3.344,4.265h-2.832l-2.714-3.738v3.738h-2.253v.004Z" fill="#81c9b2"/>
            <path d="M193.64,160.444h2.115l-1.757,3.56h-1.571l1.213-3.56Z" fill="#81c9b2"/>
            <path d="M196.937,168.773l2.875-8.33h2.844l2.879,8.33h-2.257l-.421-1.489h-3.226l-.433,1.489h-2.261ZM200.115,165.662h2.261l-.847-2.749c-.028-.083-.063-.217-.106-.406-.047-.185-.102-.425-.177-.717-.051.205-.098.402-.146.587s-.095.362-.146.536l-.839,2.749Z" fill="#81c9b2"/>
            <path d="M206.074,168.773l2.871-8.33h2.844l2.879,8.33h-2.257l-.421-1.489h-3.226l-.433,1.489h-2.257ZM209.256,165.662h2.261l-.847-2.749c-.028-.083-.063-.217-.106-.406-.047-.185-.102-.425-.177-.717-.051.205-.098.402-.146.587s-.095.362-.146.536l-.839,2.749Z" fill="#81c9b2"/>
            <path d="M215.936,168.773v-8.33h2.249v3.785l2.635-3.785h2.647l-3.076,4.061,3.344,4.265h-2.832l-2.714-3.738v3.738h-2.253v.004Z" fill="#81c9b2"/>
          </g>
        </g>
        <g>
          <path d="M68.748,88.059c.161,0,.323-.043.469-.13.039-.024,4.041-2.395,8.302-.268.449.224.996.043,1.221-.406s.043-.996-.406-1.221c-.079-.039-.158-.075-.232-.114l-.772-3.072c-.095-.382-.484-.614-.866-.52s-.614.484-.52.866l.532,2.123c-.378-.106-.748-.185-1.111-.24l-.736-3.005c-.095-.382-.48-.618-.863-.524-.382.095-.618.48-.524.863l.622,2.54c-.311-.004-.614.008-.906.028l-.835-2.824c-.11-.378-.508-.595-.886-.48-.378.11-.595.508-.48.886l.776,2.619c-.331.067-.642.146-.933.232l-.744-2.58c-.11-.378-.504-.599-.882-.488s-.599.504-.488.882l.768,2.666c-.571.244-.918.449-.969.48-.429.26-.567.819-.307,1.248.165.28.465.437.772.437Z" fill="#81c9b2"/>
          <path d="M71.142,94.864c.563.039,1.174.02,1.729-.071,1.544-.248,2.068-.922,1.953-1.631s-.827-1.182-2.367-.929c-.433.071-.89.189-1.315.343-1.083.39-1.985.985-1.902,1.493.075.453.906.725,1.902.796Z" fill="#81c9b2"/>
          <path d="M89.09,111.855c-.61,0-1.103.492-1.103,1.103v1.95h-14.041v-1.95c0-.61-.492-1.103-1.103-1.103s-1.103.492-1.103,1.103v41.397c0,.965-.788,1.753-1.753,1.753h-17.298c-.965,0-1.753-.788-1.753-1.753v-43.567c0-.831.677-1.508,1.508-1.508h3.269c.071,0,.142-.008.213-.02.882.484,1.863.772,2.895.772h.059c2.099-.024,3.994-1.063,5.262-2.462,1.564.685,4.986,1.993,8.598,2.091,2.304.063,4.222-.512,5.908-1.016,1.201-.358,2.339-.701,3.525-.803.61-.051,1.099.047,1.343.276.276.26.323.772.315,1.154-.012.646.5,1.178,1.142,1.193h.024c.634,0,1.154-.508,1.166-1.142.028-1.248-.327-2.229-1.056-2.907-.748-.701-1.835-1.012-3.139-.898-1.426.122-2.733.516-3.998.894-1.666.5-3.245.973-5.175.918-2.954-.079-5.86-1.119-7.381-1.753.177-.437.291-.882.339-1.315.055-.555.047-1.083-.02-1.579.874.339,1.839.63,3.119.886l.004.445c.008.642.528,1.158,1.17,1.158h.012c.646-.008,1.162-.536,1.158-1.182v-.051c.323.039.666.079,1.024.118.071.008.142.012.209.02l-.008.343c-.012.646.5,1.178,1.146,1.189h.024c.634,0,1.158-.508,1.166-1.146l.008-.354c.465-.028.929-.071,1.386-.126l.063.343c.091.504.528.855,1.02.855.059,0,.122-.004.185-.016.563-.102.941-.642.839-1.205l-.059-.323c.528-.11,1.036-.236,1.52-.366l.079.339c.11.48.54.807,1.012.807.075,0,.154-.008.232-.028.559-.126.91-.685.78-1.245l-.11-.484c1.445-.492,2.399-.929,2.497-.973.587-.272.839-.965.567-1.552-.272-.587-.965-.839-1.552-.571-.051.024-4.856,2.217-9.409,2.233-.059-.012-.118-.016-.181-.02-.067,0-.134.004-.197.016-.331-.008-.658-.028-.981-.063-4.352-.457-5.75-1.111-7.869-2.099-.425-.197-.866-.406-1.367-.626-.008-.004-.02-.008-.028-.012-.465-.256-.985-.465-1.56-.622-1.658-.445-3.482.075-4.64,1.331-.882.953-1.182,2.166-.8,3.241.217.607.886.926,1.493.709.607-.217.926-.882.709-1.493-.126-.358.209-.76.311-.874.473-.512,1.375-.914,2.316-.662,1.824.492,2.584,1.568,2.399,3.395-.043.441-.256.945-.599,1.441-.008.012-.012.02-.02.032-.796,1.13-2.269,2.186-3.958,2.202h-.035c-2.426,0-4.561-2.729-4.718-5.01-.209-3.009,1.524-5.727,4.029-6.321,2.284-.54,5.719.343,9.043,1.201,2.745.709,5.341,1.375,7.396,1.276.374-.02.776-.083,1.189-.181.035-.008.075-.016.11-.028,1.438-.358,3.092-1.119,4.821-1.914,2.489-1.146,5.589-2.572,7.034-2.064.469.165,1.052.453,1.15.894.095.414-.193.937-.417,1.162-.043.043-.079.071-.106.091-.154-.465-.591-.803-1.111-.803-.646,0-1.17.524-1.17,1.17,0,.768.54,1.508,1.339,1.839.91.378,1.918.134,2.702-.646.729-.729,1.335-2.044,1.044-3.332-.185-.819-.8-1.93-2.655-2.58-2.339-.819-5.616.689-8.787,2.146-.043.02-.091.039-.134.063.224-1.122.055-2.332-.5-3.489-.831-1.729-2.784-3.596-5.557-3.159-1.248.197-2.875.764-4.45,1.315-1.351.473-2.745.961-3.706,1.138-.8.15-1.646-.032-2.257-.484-.39-.288-.634-.646-.673-.985-.067-.571.083-1.111.41-1.477.331-.37.843-.567,1.481-.567.327,0,.547.118.658.354.087.189.071.406-.032.528-.421.488-.366,1.225.122,1.646.488.421,1.225.366,1.646-.122.705-.815.855-2.005.386-3.029-.492-1.075-1.532-1.717-2.781-1.717-1.304,0-2.45.48-3.226,1.351-.339.378-.595.823-.768,1.308-.985-1.245-2.45-2.099-4.525-2.139-1.15-.024-2.879.622-3.962,2.083-.528.717-1.044,1.827-.878,3.344h-12.075c-3.647,0-6.617,2.966-6.617,6.617v70.707c0,3.635,2.958,6.593,6.593,6.593h44.855c3.572,0,6.475-2.907,6.475-6.475v-55.04c.004-.61-.492-1.103-1.099-1.103ZM87.987,117.243v1.89h-14.041v-1.89h14.041ZM87.987,123.359h-14.041v-1.89h14.041v1.89ZM87.987,127.585h-14.041v-1.89h14.041v1.89ZM48.823,109.945h-5.179c-.429,0-.776-.335-.776-.744v-3.08c0-.41.347-.744.776-.744h2.521v1.453c0,1.378,1.162,2.501,2.595,2.501h.264c-.087.197-.154.402-.201.614ZM38.386,99.909c0-.378.347-.685.776-.685h3.474v1.323c0,1.378,1.162,2.501,2.595,2.501h1.075c-.059.161-.098.331-.122.508h-7.022c-.429,0-.776-.307-.776-.685v-2.962ZM48.02,96.901c.095,1.296,1.217,2.324,2.584,2.324h1.634c-.221.646-.366,1.323-.437,2.009h-6.565c-.429,0-.776-.307-.776-.685v-2.966c0-.378.347-.685.776-.685h2.784v.004ZM52.443,107.07c-.638,0-1.237.161-1.76.445h-1.922c-.429,0-.776-.307-.776-.685v-2.966c0-.378.347-.685.776-.685h3.044c.165,1.343.752,2.721,1.634,3.887h-.996v.004ZM53.309,88.291c.701-.949,1.867-1.359,2.465-1.347,1.65.032,2.82.721,3.576,2.111.764,1.402.847,3.048.847,3.686,0,.5.406.91.91.91s.91-.406.91-.91c0-.232-.008-.469-.024-.705,1.099.705,2.465.965,3.801.721,1.138-.209,2.556-.705,4.053-1.229,1.477-.516,3.001-1.048,4.041-1.213,1.938-.303,2.911,1.501,3.088,1.867.421.878.484,1.737.173,2.481-.315.764-1.024,1.39-1.938,1.725-.276.063-.532.106-.756.118-1.701.083-4.131-.544-6.699-1.205-3.596-.926-7.318-1.887-10.161-1.209-1.824.433-3.411,1.599-4.478,3.293-.008.008-.012.02-.016.028h-2.493c-.429,0-.776-.307-.776-.685v-2.966c0-.378.347-.685.776-.685h1.418c.461.488,1.067.89,1.721,1.119.445.158.902.232,1.363.232.843,0,1.694-.26,2.481-.776.902-.587,1.41-1.808,1.268-3.033-.15-1.28-.949-2.272-2.198-2.721-.473-.169-.992.075-1.162.547s.075.992.547,1.162c.744.268.957.811,1.004,1.221.067.583-.177,1.119-.457,1.3-.752.492-1.508.61-2.249.351-.496-.173-.902-.496-1.146-.815-.02-.028-.039-.055-.059-.079-.079-.11-.134-.221-.165-.319-.378-1.158-.268-2.158.335-2.974ZM48.008,93.758v1.323h-6.152c-.429,0-.776-.307-.776-.685v-1.638h7.144c-.138.311-.217.646-.217,1ZM38.882,92.761h.382v1.638c0,1.378,1.162,2.501,2.595,2.501h.882c-.047.161-.079.331-.091.508h-7.01c-.429,0-.776-.307-.776-.685v-1.363c.689-1.528,2.229-2.599,4.017-2.599ZM87.987,167.994c0,2.355-1.914,4.269-4.269,4.269h-44.855c-2.418,0-4.387-1.969-4.387-4.387v-68.923c.351.173.748.272,1.166.272h1.028c-.063.217-.102.445-.102.685v2.966c0,1.378,1.162,2.501,2.595,2.501h2.001c-.071.236-.114.484-.114.744v3.08c0,1.414,1.162,2.564,2.595,2.564h5.081v42.594c0,2.182,1.776,3.958,3.958,3.958h17.298c2.182,0,3.958-1.776,3.958-3.958v-24.434h14.041v38.069h.008Z" fill="#81c9b2"/>
          <path d="M66.4,159.365h-10.319c-2.009,0-3.643,1.634-3.643,3.643v7.152c0,.646.524,1.17,1.17,1.17s1.17-.524,1.17-1.17v-7.152c0-.721.587-1.308,1.308-1.308h10.319c.721,0,1.308.587,1.308,1.308v7.152c0,.646.524,1.17,1.17,1.17s1.17-.524,1.17-1.17v-7.152c-.008-2.009-1.642-3.643-3.651-3.643Z" fill="#81c9b2"/>
          <path d="M62.813,163.279h-3.143c-1.642,0-2.977,1.335-2.977,2.977v1.654c0,1.642,1.335,2.977,2.977,2.977h3.143c1.642,0,2.977-1.335,2.977-2.977v-1.654c0-1.638-1.335-2.977-2.977-2.977ZM64.104,167.915c0,.713-.579,1.292-1.292,1.292h-3.143c-.713,0-1.292-.579-1.292-1.292v-1.654c0-.713.579-1.292,1.292-1.292h3.143c.713,0,1.292.579,1.292,1.292v1.654Z" fill="#81c9b2"/>
          <path d="M78.976,155.064h7.152c.646,0,1.17-.524,1.17-1.17s-.524-1.17-1.17-1.17h-7.152c-.721,0-1.308-.587-1.308-1.308v-10.319c0-.721.587-1.308,1.308-1.308h7.152c.646,0,1.17-.524,1.17-1.17s-.524-1.17-1.17-1.17h-7.152c-2.009,0-3.643,1.634-3.643,3.643v10.319c-.004,2.016,1.631,3.651,3.643,3.651Z" fill="#81c9b2"/>
          <path d="M83.879,141.708h-1.654c-1.642,0-2.977,1.335-2.977,2.977v3.143c0,1.642,1.335,2.977,2.977,2.977h1.654c1.642,0,2.977-1.335,2.977-2.977v-3.143c.004-1.638-1.335-2.977-2.977-2.977ZM85.171,147.833c0,.713-.579,1.292-1.292,1.292h-1.654c-.713,0-1.292-.579-1.292-1.292v-3.143c0-.713.579-1.292,1.292-1.292h1.654c.713,0,1.292.579,1.292,1.292v3.143Z" fill="#81c9b2"/>
          <path d="M47.248,151.421v-10.319c0-2.009-1.634-3.643-3.643-3.643h-7.152c-.646,0-1.17.524-1.17,1.17s.524,1.17,1.17,1.17h7.152c.721,0,1.308.587,1.308,1.308v10.319c0,.721-.587,1.308-1.308,1.308h-7.152c-.646,0-1.17.524-1.17,1.17s.524,1.17,1.17,1.17h7.152c2.009-.008,3.643-1.642,3.643-3.651Z" fill="#81c9b2"/>
          <path d="M38.697,150.81h1.654c1.642,0,2.977-1.335,2.977-2.977v-3.143c0-1.642-1.335-2.977-2.977-2.977h-1.654c-1.642,0-2.977,1.335-2.977,2.977v3.143c0,1.642,1.335,2.977,2.977,2.977ZM37.406,144.69c0-.713.579-1.292,1.292-1.292h1.654c.713,0,1.292.579,1.292,1.292v3.143c0,.713-.579,1.292-1.292,1.292h-1.654c-.713,0-1.292-.579-1.292-1.292v-3.143Z" fill="#81c9b2"/>
          <path d="M36.452,115.896h7.152c.721,0,1.308.587,1.308,1.308v10.319c0,.721-.587,1.308-1.308,1.308h-7.152c-.646,0-1.17.524-1.17,1.17s.524,1.17,1.17,1.17h7.152c2.009,0,3.643-1.634,3.643-3.643v-10.319c0-2.009-1.634-3.643-3.643-3.643h-7.152c-.646,0-1.17.524-1.17,1.17s.528,1.162,1.17,1.162Z" fill="#81c9b2"/>
          <path d="M38.697,126.912h1.654c1.642,0,2.977-1.335,2.977-2.977v-3.143c0-1.642-1.335-2.977-2.977-2.977h-1.654c-1.642,0-2.977,1.335-2.977,2.977v3.143c0,1.638,1.335,2.977,2.977,2.977ZM37.406,120.791c0-.713.579-1.292,1.292-1.292h1.654c.713,0,1.292.579,1.292,1.292v3.143c0,.713-.579,1.292-1.292,1.292h-1.654c-.713,0-1.292-.579-1.292-1.292v-3.143Z" fill="#81c9b2"/>
          <path d="M76.802,134.257h8.239c.646,0,1.17-.524,1.17-1.17s-.524-1.17-1.17-1.17h-8.239c-.646,0-1.17.524-1.17,1.17s.524,1.17,1.17,1.17Z" fill="#81c9b2"/>
          <path d="M36.834,132.941v2.812c0,.252.205.453.453.453s.453-.205.453-.453v-2.812c0-.252-.205-.453-.453-.453s-.453.205-.453.453Z" fill="#81c9b2"/>
          <path d="M37.354,156.856v7.4c0,.252.205.453.453.453s.453-.205.453-.453v-7.4c0-.252-.205-.453-.453-.453s-.453.201-.453.453Z" fill="#81c9b2"/>
          <path d="M41.683,156.856v3.828c0,.252.205.453.453.453s.453-.205.453-.453v-3.828c0-.252-.205-.453-.453-.453s-.453.201-.453.453Z" fill="#81c9b2"/>
          <path d="M51.198,168.313h-8.2c-.252,0-.453.205-.453.453s.205.453.453.453h8.2c.252,0,.453-.205.453-.453s-.201-.453-.453-.453Z" fill="#81c9b2"/>
          <path d="M51.198,163.984h-4.691c-.252,0-.453.205-.453.453s.205.453.453.453h4.691c.252,0,.453-.205.453-.453s-.201-.453-.453-.453Z" fill="#81c9b2"/>
          <path d="M51.198,159.766h-1.221c-.252,0-.453.205-.453.453s.205.453.453.453h1.221c.252,0,.453-.205.453-.453s-.201-.453-.453-.453Z" fill="#81c9b2"/>
          <path d="M79.46,168.313h-8.2c-.252,0-.453.205-.453.453s.205.453.453.453h8.2c.252,0,.453-.205.453-.453s-.205-.453-.453-.453Z" fill="#81c9b2"/>
          <path d="M71.261,164.89h4.691c.252,0,.453-.205.453-.453s-.205-.453-.453-.453h-4.691c-.252,0-.453.205-.453.453s.201.453.453.453Z" fill="#81c9b2"/>
          <path d="M71.261,160.672h1.221c.252,0,.453-.205.453-.453s-.205-.453-.453-.453h-1.221c-.252,0-.453.205-.453.453s.201.453.453.453Z" fill="#81c9b2"/>
          <path d="M36.886,112.261c.252,0,.453-.205.453-.453v-5.415c0-.252-.205-.453-.453-.453s-.453.205-.453.453v5.415c0,.248.205.453.453.453Z" fill="#81c9b2"/>
          <path d="M40.099,112.221c.252,0,.453-.205.453-.453v-3.029c0-.252-.205-.453-.453-.453s-.453.205-.453.453v3.029c0,.248.201.453.453.453Z" fill="#81c9b2"/>
          <path d="M41.092,132.941v2.812c0,.252.205.453.453.453s.453-.205.453-.453v-2.812c0-.252-.205-.453-.453-.453s-.453.205-.453.453Z" fill="#81c9b2"/>
          <path d="M45.806,132.488c-.252,0-.453.205-.453.453v2.812c0,.252.205.453.453.453s.453-.205.453-.453v-2.812c.004-.248-.201-.453-.453-.453Z" fill="#81c9b2"/>
          <path d="M84.651,164.709c.252,0,.453-.205.453-.453v-7.4c0-.252-.205-.453-.453-.453-.252,0-.453.205-.453.453v7.4c0,.248.205.453.453.453Z" fill="#81c9b2"/>
          <path d="M80.776,160.684v-3.828c0-.252-.205-.453-.453-.453-.252,0-.453.205-.453.453v3.828c0,.252.205.453.453.453.248,0,.453-.201.453-.453Z" fill="#81c9b2"/>
          <path d="M57.748,147.581c0-.5-.406-.91-.91-.91h-4.277c-.5,0-.91.406-.91.91s.406.91.91.91h4.277c.504,0,.91-.41.91-.91Z" fill="#81c9b2"/>
          <path d="M52.561,143.65h2.536c.5,0,.91-.406.91-.91s-.406-.91-.91-.91h-2.536c-.5,0-.91.406-.91.91s.41.91.91.91Z" fill="#81c9b2"/>
          <path d="M52.561,151.251c-.5,0-.91.406-.91.91s.406.91.91.91h2.536c.5,0,.91-.406.91-.91s-.406-.91-.91-.91h-2.536Z" fill="#81c9b2"/>
          <path d="M52.561,129.216h2.536c.5,0,.91-.406.91-.91s-.406-.91-.91-.91h-2.536c-.5,0-.91.406-.91.91s.41.91.91.91Z" fill="#81c9b2"/>
          <path d="M52.561,134.028h2.536c.5,0,.91-.406.91-.91s-.406-.91-.91-.91h-2.536c-.5,0-.91.406-.91.91s.41.91.91.91Z" fill="#81c9b2"/>
          <path d="M52.561,119.712h2.536c.5,0,.91-.406.91-.91s-.406-.91-.91-.91h-2.536c-.5,0-.91.406-.91.91s.41.91.91.91Z" fill="#81c9b2"/>
          <path d="M52.561,114.769h2.536c.5,0,.91-.406.91-.91s-.406-.91-.91-.91h-2.536c-.5,0-.91.406-.91.91s.41.91.91.91Z" fill="#81c9b2"/>
          <path d="M52.561,138.837h2.536c.5,0,.91-.406.91-.91,0-.5-.406-.91-.91-.91h-2.536c-.5,0-.91.406-.91.91.004.504.41.91.91.91Z" fill="#81c9b2"/>
          <path d="M69.898,146.671h-4.277c-.5,0-.91.406-.91.91s.406.91.91.91h4.277c.5,0,.91-.406.91-.91s-.41-.91-.91-.91Z" fill="#81c9b2"/>
          <path d="M69.898,141.834h-2.536c-.5,0-.91.406-.91.91s.406.91.91.91h2.536c.5,0,.91-.406.91-.91s-.41-.91-.91-.91Z" fill="#81c9b2"/>
          <path d="M69.898,151.251h-2.536c-.5,0-.91.406-.91.91s.406.91.91.91h2.536c.5,0,.91-.406.91-.91s-.41-.91-.91-.91Z" fill="#81c9b2"/>
          <path d="M69.898,132.209h-2.536c-.5,0-.91.406-.91.91s.406.91.91.91h2.536c.5,0,.91-.406.91-.91s-.41-.91-.91-.91Z" fill="#81c9b2"/>
          <path d="M69.898,137.022h-2.536c-.5,0-.91.406-.91.91,0,.5.406.91.91.91h2.536c.5,0,.91-.406.91-.91s-.41-.91-.91-.91Z" fill="#81c9b2"/>
          <path d="M56.842,122.776h-4.277c-.5,0-.91.406-.91.91s.406.91.91.91h4.277c.5,0,.91-.406.91-.91s-.41-.91-.91-.91Z" fill="#81c9b2"/>
          <path d="M41.175,167.852c-.866-.331-1.595-.933-2.087-1.701-.118-.181-.221-.374-.307-.571-.102-.232-.398-.307-.595-.146l-.874.717-.323.264-.075.059c-.091.075-.142.181-.142.295v.288c0,.394.075.768.217,1.111.445,1.111,1.532,1.902,2.796,1.902.11,0,.217-.047.291-.134.252-.295.859-1.004,1.26-1.473.177-.205.087-.516-.161-.61Z" fill="#81c9b2"/>
          <path d="M42.943,166.308c.11,0,.221-.047.291-.134l.02-.024,1.095-1.276c.161-.189.102-.477-.118-.591-.78-.406-1.418-1.052-1.808-1.839-.11-.224-.398-.288-.591-.13l-1.54,1.26c-.102.083-.154.217-.138.347.13,1.036.843,1.894,1.8,2.233.284.102.591.158.91.158h.079v-.004Z" fill="#81c9b2"/>
          <path d="M45.527,160.069c-.028-.043-.055-.087-.079-.13-.118-.209-.394-.268-.583-.114l-1.122.922c-.11.091-.161.228-.134.366.189.985.949,1.768,1.918,1.997.02.004.039.012.059.016.138.028.28-.02.37-.126l.953-1.115c.158-.185.102-.469-.11-.587-.52-.303-.957-.725-1.272-1.229Z" fill="#81c9b2"/>
          <path d="M46.606,158.687c.189.733.78,1.304,1.528,1.461.134.028.272-.024.362-.13l.646-.752c.15-.177.11-.445-.083-.571-.386-.256-.721-.583-.981-.965-.039-.055-.087-.095-.142-.122-.11-.055-.244-.059-.354,0-.024.012-.043.024-.063.043l-.78.638c-.122.098-.169.252-.134.398Z" fill="#81c9b2"/>
          <path d="M85.152,166.147l-.874-.717c-.197-.161-.492-.087-.595.146-.087.197-.193.39-.307.571-.492.768-1.225,1.375-2.087,1.701-.252.095-.339.406-.161.61.402.469,1.008,1.182,1.26,1.473.075.087.177.134.291.134h0c1.658,0,3.013-1.355,3.013-3.013v-.288c0-.114-.051-.224-.142-.295l-.398-.323Z" fill="#81c9b2"/>
          <path d="M82.304,163.913c.016-.13-.035-.264-.138-.347l-1.54-1.26c-.193-.158-.48-.091-.591.13-.102.209-.221.402-.354.591-.378.524-.874.953-1.449,1.252-.221.114-.28.402-.118.591l1.095,1.276.02.024c.075.087.181.134.291.134h.075c.032,0,.059-.004.091-.004.288-.008.563-.063.819-.154.957-.339,1.67-1.193,1.8-2.233Z" fill="#81c9b2"/>
          <path d="M76.877,163.122c1-.209,1.784-1.004,1.977-2.013.028-.138-.028-.28-.134-.366l-1.122-.922c-.185-.154-.461-.095-.583.114-.319.563-.788,1.036-1.351,1.355-.213.122-.268.402-.11.587l.953,1.115c.091.106.232.158.37.13Z" fill="#81c9b2"/>
          <path d="M73.403,158.699c-.193.13-.236.394-.083.571l.646.752c.091.102.228.158.362.13.744-.158,1.339-.729,1.528-1.461.039-.146-.012-.303-.126-.398l-.78-.638c-.02-.016-.043-.032-.063-.043-.114-.059-.244-.055-.354,0-.055.028-.106.071-.142.122-.268.382-.603.709-.989.965Z" fill="#81c9b2"/>
        </g>
      </g>
    </g>
  </g>
</svg>