<?xml version="1.0" encoding="UTF-8"?>
<svg id="Capa_2" data-name="Capa 2" xmlns="http://www.w3.org/2000/svg" viewBox="0 0 256 256">
  <g id="capa">
    <g id="logo">
      <g id="background">
        <g>
          <path id="logo-tren-interurbano" d="M238.08,0h-96.702l-13.445,14.177L114.365,0H17.92C8.023,0,0,8.023,0,17.92v96.768l14.177,13.568-14.177,13.443v96.381c0,9.897,8.023,17.92,17.92,17.92h96.445l13.568-14.177,13.445,14.177h96.701c9.897,0,17.92-8.023,17.92-17.92v-96.381l-14.177-13.443,14.177-13.568V17.92c0-9.897-8.023-17.92-17.92-17.92ZM208,150.941c0,4.12-.43,8.144-1.249,12.021-1.372,6.525-3.843,12.645-7.208,18.159-10.195,16.717-28.608,27.878-49.629,27.878h-46.827c-21.021,0-39.435-11.162-49.629-27.878-3.365-5.514-5.837-11.635-7.208-18.159-.819-3.877-1.249-7.901-1.249-12.021v-63.941h28v63.348c0,15.771,13.287,28.951,28.601,30.652h47.754s3.386-.128,3.422-.192c15.315-1.701,27.222-14.69,27.222-30.461v-63.348h28v63.941ZM113,163v-76h28v76h-28ZM209,73H45v-28h164v28Z" fill="#83332e"/>
          <path d="M208,87v63.941c0,4.12-.43,8.144-1.249,12.021-1.372,6.525-3.843,12.645-7.208,18.159-10.195,16.717-28.608,27.878-49.629,27.878h-46.827c-21.021,0-39.435-11.162-49.629-27.878-3.365-5.514-5.837-11.635-7.208-18.159-.819-3.877-1.249-7.901-1.249-12.021v-63.941h28v63.348c0,15.771,13.287,28.951,28.601,30.652h47.754s3.386-.128,3.422-.192c15.315-1.701,27.222-14.69,27.222-30.461v-63.348h28Z" fill="#fff"/>
          <rect x="113" y="87" width="28" height="76" fill="#fff"/>
        </g>
        <rect x="45" y="45" width="164" height="28" fill="#fff"/>
      </g>
    </g>
  </g>
</svg>