<?xml version="1.0" encoding="UTF-8"?>
<svg id="Master" xmlns="http://www.w3.org/2000/svg" viewBox="0 0 256 256">
  <g id="ACCT">
    <rect id="background" x="0" y="0" width="256" height="256" fill="#e6e6dc"/>
    <g id="vector">
      <path d="M69.5,69.69c-2.43,2.43-6.36,2.43-8.78,0-2.43-2.42-2.43-6.35,0-8.78,2.42-2.42,6.36-2.42,8.78,0,2.42,2.43,2.42,6.36,0,8.78Z" fill="#00524c"/>
      <path d="M195.24,195.44c-2.43,2.42-6.36,2.42-8.78,0-2.43-2.43-2.43-6.36,0-8.78,2.42-2.43,6.35-2.43,8.78,0,2.42,2.42,2.42,6.35,0,8.78Z" fill="#00524c"/>
      <path d="M69.5,195.44c-2.43,2.42-6.36,2.42-8.78-.01-2.43-2.42-2.43-6.35,0-8.78,2.42-2.42,6.35-2.42,8.78,0,2.42,2.43,2.42,6.36,0,8.79Z" fill="#00524c"/>
      <path d="M195.24,69.7c-2.42,2.42-6.35,2.42-8.78,0-2.42-2.43-2.42-6.36,0-8.78,2.43-2.43,6.36-2.43,8.78,0,2.43,2.42,2.43,6.35,0,8.78Z" fill="#00524c"/>
      <path d="M55.055,184.064c-1.573,0-3.121-.74-4.094-2.124-22.506-31.995-22.556-75.137-.125-107.352,1.578-2.266,4.695-2.824,6.96-1.247,2.266,1.578,2.824,4.694,1.247,6.96-20.039,28.78-20,67.313.098,95.885,1.589,2.258,1.046,5.377-1.213,6.966-.875.616-1.878.911-2.872.911Z" fill="#00524c"/>
      <path d="M127.466,221.821c-18.821,0-37.47-5.527-53.186-16.582-2.258-1.588-2.801-4.708-1.212-6.966s4.708-2.801,6.966-1.212c28.044,19.728,66.624,19.695,96.002-.08,2.291-1.541,5.398-.936,6.94,1.356,1.542,2.291.935,5.398-1.356,6.94-16.386,11.03-35.356,16.544-54.154,16.544Z" fill="#00524c"/>
      <path d="M200.897,184.069c-1.003,0-2.017-.301-2.896-.928-2.249-1.602-2.774-4.724-1.172-6.974,20.155-28.298,20.157-66.869.005-95.979-1.572-2.271-1.005-5.385,1.265-6.957s5.386-1.005,6.957,1.265c22.543,32.563,22.511,75.753-.081,107.473-.976,1.369-2.515,2.1-4.077,2.1Z" fill="#00524c"/>
      <path d="M128.05,133.58c-1.17.47-2.48.47-3.65,0,.59.23,1.21.35,1.83.35s1.24-.12,1.82-.35Z" fill="#202b52"/>
      <path d="M179.075,60.397c-.995,0-1.999-.296-2.874-.912-28.714-20.211-67.356-20.294-96.155-.205-2.265,1.579-5.381,1.024-6.962-1.241-1.58-2.265-1.024-5.381,1.24-6.961,32.238-22.486,75.492-22.396,107.632.23,2.258,1.589,2.8,4.708,1.21,6.966-.973,1.383-2.521,2.123-4.093,2.123Z" fill="#00524c"/>
      <path d="M173.02,132.62c-1.48-2.74-4.91-3.76-7.65-2.27-2.75,1.48-3.77,4.91-2.28,7.65,6.59,12.19,7.45,22.55,2.3,27.7-3.52,3.51-10.81,3.62-20.01.29-4.15-1.51-8.46-3.62-12.79-6.27,4.22-3.44,8.46-7.27,12.62-11.43,22.1-22.09,39.98-51.78,27.01-64.75-4.11-4.11-12.47-7.39-28.9.35-3.26,1.53-6.64,3.42-10.1,5.62-1.85-1.17-3.74-2.29-5.66-3.35-25.45-14.67-38.73-10.21-45.38-3.87-3.99,3.8-6.14,9.27-6.21,15.81-.19,15.3,10.66,35.76,28.3,53.4,2.92,2.92,5.93,5.66,9,8.21-12.27,7.5-20.96,8.71-23.45,6.23-2.03-2.04-1.77-8.55,3.39-18.5,1.44-2.77.36-6.18-2.41-7.62-2.77-1.43-6.18-.35-7.61,2.41-9.83,18.93-5.07,27.98-1.35,31.7,2.02,2.02,5.76,4.46,12.03,4.46,4.17,0,9.46-1.08,16.11-4.09,4.12-1.87,8.48-4.35,12.95-7.36,6.23,4.18,12.53,7.47,18.6,9.67,5.7,2.06,10.99,3.09,15.72,3.09,6.62,0,12.13-2.02,16.13-6.01,9.02-9.02,8.89-23.98-.36-41.07ZM148.13,94.11c8.77-4.13,14.41-4.27,16.1-2.58,2.2,2.2,1.14,9.84-4.96,20.71-2.53-2.75-5.29-5.71-6.22-6.67-3.1-3.17-6.38-6.15-9.82-8.91,1.67-.95,3.3-1.8,4.9-2.55ZM87.26,97.99c.04-3.47.96-6.08,2.71-7.76,6.56-6.25,19.83-1.04,28.95,3.82l-.04.07,3.55,1.88h.01c.24.13.47.27.71.4-5.25,4.08-10.54,8.77-15.68,13.91-4.16,4.16-7.99,8.38-11.42,12.59-5.62-9.17-8.87-18.06-8.79-24.91ZM112.26,143.51c-3.44-3.44-6.63-7.05-9.47-10.7,3.69-4.75,7.93-9.54,12.67-14.27,5.86-5.86,11.88-11.05,17.75-15.35,4.17,3.1,8.1,6.53,11.75,10.27,1.19,1.22,5.29,5.64,7.98,8.61-4.07,5.62-9.25,11.76-15.72,18.23-5.01,5.01-9.8,9.22-14.29,12.69-3.63-2.84-7.21-6.03-10.67-9.48Z" fill="#00524c"/>
      <path d="M129.66,132.51c-.48.47-1.02.83-1.61,1.07-.58.23-1.2.35-1.82.35s-1.24-.12-1.83-.35c-.58-.24-1.13-.6-1.6-1.07-1.9-1.89-1.9-4.97,0-6.86.94-.95,2.19-1.43,3.43-1.43s2.48.48,3.43,1.43c1.9,1.89,1.9,4.97,0,6.86Z" fill="#00524c"/>
    </g>
  </g>
</svg>