<?xml version="1.0" encoding="UTF-8"?>
<svg id="Master" xmlns="http://www.w3.org/2000/svg" viewBox="0 0 256 256">
  <g id="ACCU">
    <rect id="background" x="0" y="0" width="256" height="256" fill="#e6e6dc"/>
    <g id="vector">
      <path d="M223.75,128c0-14.81-18.84-26.84-48.53-33.01-.84-3.99-1.83-7.96-2.97-11.89-11.18-41.65-28.92-50.79-41.86-51.1-7.49-.18-14.85,3.08-21.35,9.42-16.22,15.84-26.29,49.01-26.29,86.58,0,8.17.48,16.08,1.39,23.61-25.64-5.15-40.39-14.62-40.39-23.61,0-7.31,9.91-14.8,26.51-20.05,2.63-.84,4.09-3.65,3.26-6.28-.84-2.63-3.65-4.09-6.28-3.26-21.6,6.84-33.49,17.34-33.49,29.59,0,15.96,20.08,28.43,51.99,34.12,6.66,36.51,23.86,61.88,44.53,61.88,17.94,0,32.84-15.52,40.9-42.58.79-2.64-.72-5.43-3.37-6.21-2.64-.79-5.43.71-6.22,3.36-6.7,22.52-18.11,35.43-31.31,35.43-13.51,0-27.73-19.21-34.09-50.31,9.56,1.18,19.98,1.81,31.07,1.81,55.92,0,96.5-15.77,96.5-37.5ZM213.75,128c0,8.01-13.46,16.58-35.71,21.98.31-6.41.67-15.98.71-18.92.1-8.48-.44-16.92-1.62-25.26,22.79,5.39,36.62,14.08,36.62,22.2ZM116.03,48.18c4.58-4.48,9.35-6.7,14.12-6.58,15.7.38,25.33,19.94,30.94,38.43l-.12.03,1.81,5.94h.01c.63,2.22,1.22,4.45,1.74,6.69-11.31-1.68-23.85-2.59-37.28-2.59-10.88,0-21.29.62-31.05,1.84,3.87-19.19,10.84-34.98,19.83-43.76ZM94.42,153.35c-1.08-7.87-1.67-16.35-1.67-25.35,0-8.73.59-17.26,1.7-25.34,10.19-1.44,21.21-2.16,32.8-2.16,14.56,0,27.85,1.18,39.42,3.17,1.5,8.99,2.2,18.1,2.08,27.27-.04,3.23-.52,15.4-.83,21.17-11.86,2.12-25.59,3.39-40.67,3.39-12.07,0-23.07-.78-32.83-2.15Z" fill="#00524c"/>
      <circle cx="127.5" cy="127.5" r="7.5" fill="#00524c"/>
    </g>
  </g>
</svg>