<?xml version="1.0" encoding="UTF-8"?>
<svg id="Master" xmlns="http://www.w3.org/2000/svg" viewBox="0 0 256 256">
  <g id="CLIN">
    <rect id="background" x="0" y="0" width="256" height="256" fill="#e6e6dc"/>
    <g id="vector">
      <path d="M207.554,136.29c-2.657,0-4.87-2.092-4.991-4.774-1.688-37.29-34.518-66.988-74.74-67.611-39.63-.646-72.384,29.084-74.585,67.61-.157,2.757-2.513,4.884-5.277,4.707-2.757-.157-4.864-2.52-4.707-5.277,1.191-20.853,10.467-40.308,26.119-54.782,15.886-14.692,36.687-22.582,58.604-22.257,21.949.34,42.694,8.337,58.416,22.518,15.924,14.363,25.214,33.768,26.159,54.64.125,2.758-2.01,5.096-4.769,5.221-.077.003-.154.005-.23.005Z" fill="#00524c"/>
      <path d="M127.901,149.656c-1.28,0-2.559-.488-3.536-1.464-1.953-1.953-1.953-5.119,0-7.071l41.099-41.099c1.953-1.952,5.118-1.952,7.071,0,1.953,1.953,1.953,5.119,0,7.071l-41.099,41.099c-.977.976-2.256,1.464-3.536,1.464Z" fill="#00524c"/>
      <path d="M51,152h-12c-2.761,0-5-2.239-5-5s2.239-5,5-5h12c2.761,0,5,2.239,5,5s-2.239,5-5,5Z" fill="#00524c"/>
      <path d="M217,152h-13c-2.761,0-5-2.239-5-5s2.239-5,5-5h13c2.761,0,5,2.239,5,5s-2.239,5-5,5Z" fill="#00524c"/>
    </g>
  </g>
</svg>