<?xml version="1.0" encoding="UTF-8"?>
<svg id="Master" xmlns="http://www.w3.org/2000/svg" viewBox="0 0 256 256">
  <g id="DATA">
    <rect id="background" x="0" y="0" width="256" height="256" fill="#e6e6dc"/>
    <g id="vector">
      <path d="M205.97,174H50.03c-11.044,0-20.03-8.985-20.03-20.03v-39.97c0-2.762,2.239-5,5-5s5,2.238,5,5v39.97c0,5.53,4.5,10.03,10.03,10.03h155.94c5.53,0,10.03-4.5,10.03-10.03v-51.939c0-5.53-4.5-10.03-10.03-10.03H61c-2.761,0-5-2.238-5-5s2.239-5,5-5h144.97c11.044,0,20.03,8.985,20.03,20.03v51.939c0,11.045-8.985,20.03-20.03,20.03Z" fill="#00524c"/>
      <path d="M115,118h-54c-2.761,0-5-2.238-5-5s2.239-5,5-5h54c2.761,0,5,2.238,5,5s-2.239,5-5,5Z" fill="#00524c"/>
      <path d="M107,148h-46c-2.761,0-5-2.238-5-5s2.239-5,5-5h46c2.761,0,5,2.238,5,5s-2.239,5-5,5Z" fill="#00524c"/>
      <path d="M163,148h-15c-2.209,0-4-1.791-4-4v-15c0-2.209,1.791-4,4-4h15c2.209,0,4,1.791,4,4v15c0,2.209-1.791,4-4,4ZM152,140h7v-7h-7v7Z" fill="#00524c"/>
      <path d="M196,148h-15c-2.209,0-4-1.791-4-4v-15c0-2.209,1.791-4,4-4h15c2.209,0,4,1.791,4,4v15c0,2.209-1.791,4-4,4ZM185,140h7v-7h-7v7Z" fill="#00524c"/>
    </g>
  </g>
</svg>