<?xml version="1.0" encoding="UTF-8"?>
<svg id="Master" xmlns="http://www.w3.org/2000/svg" viewBox="0 0 256 256">
  <g id="EXTC">
    <rect id="background" x="0" y="0" width="256" height="256" fill="#e6e6dc"/>
    <g id="vector">
      <path d="M209.68,77.2l-9.79,9.79c-1.73,1.73-4.04,2.69-6.49,2.69-1.34,0-2.64-.28-3.82-.83l-36.53,36.49c2.82,3.53,2.6,8.72-.67,11.99l-14.85,14.85c-1.7,1.7-3.96,2.63-6.36,2.63-2.06,0-4.03-.69-5.61-1.96l-18.35,18.36c-.97.98-2.25,1.46-3.54,1.46-1.27,0-2.55-.48-3.53-1.46-1.95-1.95-1.95-5.12,0-7.07l21.84-21.86c1.71-1.72,4.35-1.93,6.29-.64.12.08.24.16.35.26h.01c0,.01.01.01.02.02.05.04.09.08.13.11.02.02.05.04.07.07.04.03.07.06.11.09.01.01.02.03.04.04.02.02.03.03.05.05l.09.09,2.03,2.03,13.43-13.44-2.12-2.12c-.61-.61-1.02-1.33-1.25-2.11-.04-.11-.07-.23-.09-.35-.15-.67-.16-1.36-.03-2.04.05-.23.11-.46.19-.69v-.01c.09-.22.18-.44.29-.66.23-.43.53-.84.9-1.21.03-.04.06-.07.09-.09l41.8-41.77c2.45-2.44,6.32-2.62,8.98-.53l9.25-9.25c.23-.23.28-.5.28-.69,0-.18-.05-.45-.28-.68l-14.16-14.16c-.25-.25-.52-.3-.71-.3s-.47.05-.71.3l-9.22,9.22c2.11,2.66,1.93,6.55-.52,9l-7.23,7.24c-1.96,1.95-5.12,1.95-7.08,0-1.95-1.96-1.95-5.12,0-7.08l5.37-5.36c-.55-1.18-.83-2.49-.83-3.83,0-2.47.96-4.78,2.7-6.52l9.74-9.75c4.29-4.29,11.27-4.29,15.56,0l14.16,14.17c4.28,4.27,4.28,11.23,0,15.51Z" fill="#00524c"/>
      <path d="M157.56,92.56l-22.15,22.14c-1.95,1.95-5.11,1.95-7.07,0l-1.41-1.41-13.44,13.43,1.42,1.41c1.95,1.96,1.95,5.12,0,7.08l-42.6,42.59c-2.45,2.46-6.34,2.62-8.99.51l-9.22,9.22c-.25.24-.3.52-.3.71s.05.46.3.71l14.16,14.16c.38.38.99.38,1.37,0l9.25-9.25c-2.09-2.65-1.91-6.53.53-8.98l7.23-7.24c1.95-1.95,5.11-1.95,7.07,0,1.95,1.95,1.95,5.11,0,7.07l-5.36,5.37c.54,1.18.83,2.48.83,3.82,0,2.45-.96,4.76-2.69,6.49l-9.79,9.79c-2.14,2.14-4.95,3.21-7.76,3.21s-5.61-1.07-7.75-3.21l-14.17-14.16c-4.28-4.29-4.28-11.27,0-15.56l9.76-9.76c2.79-2.79,6.95-3.41,10.34-1.85l37.34-37.34c-2.18-3.47-1.77-8.12,1.25-11.15l14.85-14.85c3.02-3.02,7.68-3.44,11.15-1.26l18.77-18.77c1.96-1.95,5.12-1.95,7.08,0,1.95,1.96,1.95,5.12,0,7.08Z" fill="#00524c"/>
    </g>
  </g>
</svg>