<?xml version="1.0" encoding="UTF-8"?>
<svg id="Master" xmlns="http://www.w3.org/2000/svg" viewBox="0 0 256 256">
  <g id="EXTV">
    <rect id="background" x="0" y="0" width="256" height="256" fill="#e6e6dc"/>
    <g id="vector">
      <path d="M212.38,87.98l-40.49,40.48c-1.27,1.27-2.96,1.97-4.76,1.97s-3.49-.7-4.76-1.97l-3.7-3.7-89.22,89.17c-1.37,1.37-3.17,2.06-4.95,2.06-1.72,0-3.42-.64-4.72-1.91l-7.01-7.12c-1.25-1.24-1.97-2.95-1.98-4.77,0-1.82.7-3.53,1.99-4.82l65.74-65.74c1.46-1.46,3.84-1.46,5.3,0,1.47,1.47,1.47,3.84,0,5.31l-65.23,65.23,5.96,6.06,89.34-89.31c2.64-2.63,6.92-2.63,9.55,0l3.69,3.7,39.95-39.95c.83-.84.83-2.2,0-3.04l-19.83-19.82c-.87-.88-2.4-.88-3.27,0l-39.83,39.83,3.71,3.71c1.28,1.27,1.98,2.97,1.98,4.77s-.7,3.5-1.98,4.77l-7.07,7.07c-1.46,1.47-3.84,1.47-5.3.01-1.47-1.47-1.47-3.84,0-5.31l6.54-6.54-3.66-3.66c-2.66-2.66-2.66-6.99,0-9.65l40.3-40.31c1.86-1.85,4.32-2.87,6.95-2.87s5.08,1.02,6.94,2.88l1.62,1.62,8.56-8.57c1.22-1.22,3.2-1.22,4.42,0,1.22,1.23,1.22,3.2,0,4.42l-8.56,8.57,13.78,13.77c3.76,3.77,3.76,9.89,0,13.66Z" fill="#00524c"/>
    </g>
  </g>
</svg>