<?xml version="1.0" encoding="UTF-8"?>
<svg id="Master" xmlns="http://www.w3.org/2000/svg" viewBox="0 0 256 256">
  <g id="INCL">
    <rect id="background" x="0" y="0" width="256" height="256" fill="#e6e6dc"/>
    <g id="icon">
      <path d="M200.66,187.98c-18.59,22.49-45.53,34.13-72.66,34.13-21.13,0-42.37-7.05-59.9-21.53-9.58-7.92-17.01-16.92-22.71-27.51-1.11-2.06-.34-4.63,1.72-5.74,2.06-1.11,4.63-.34,5.74,1.72,5.17,9.61,11.93,17.79,20.65,24.99,22.55,18.63,51.87,23.76,78.08,16.32-.11-1.96,1.16-3.8,3.13-4.33,2.16-.57,4.3-1.32,6.35-2.2,2.01-.86,3.97-1.88,5.84-3.03,1.73-1.06,3.91-.73,5.25.67,8.14-4.86,15.6-11.17,21.98-18.89,30.09-36.42,24.95-90.53-11.47-120.62-22.56-18.65-51.92-23.77-78.15-16.3.11,1.96-1.16,3.79-3.13,4.32-2.16.57-4.3,1.31-6.35,2.2-2.01.86-3.98,1.88-5.84,3.02-.69.43-1.46.63-2.21.63-1.12,0-2.22-.44-3.02-1.27-8.12,4.86-15.55,11.16-21.92,18.86-19.88,24.05-25.22,55.62-14.28,84.45.83,2.19-.27,4.64-2.45,5.47-2.2.83-4.64-.28-5.47-2.46-12.03-31.71-6.18-66.43,15.67-92.86,33.07-40.02,92.53-45.67,132.55-12.6,40.02,33.08,45.67,92.54,12.6,132.56Z" fill="#00524c"/>
      <path d="M128.08,86.06c-23.12,0-41.94,18.82-41.94,41.94s18.82,41.94,41.94,41.94,41.94-18.82,41.94-41.94-18.81-41.94-41.94-41.94ZM128.08,161.46c-18.45,0-33.46-15.01-33.46-33.46s15.01-33.46,33.46-33.46,33.47,15.01,33.47,33.46-15.02,33.46-33.47,33.46Z" fill="#00524c"/>
      <path d="M134.44,128c0,3.51-2.85,6.35-6.36,6.35s-6.35-2.84-6.35-6.35,2.84-6.35,6.35-6.35,6.36,2.84,6.36,6.35Z" fill="#00524c"/>
      <path d="M176.954,109.913c-1.607,0-3.144-.919-3.855-2.477-.972-2.128-.035-4.641,2.093-5.613l17.941-8.196c2.129-.972,4.642-.036,5.613,2.093.972,2.128.035,4.641-2.093,5.613l-17.941,8.196c-.571.261-1.169.384-1.758.384Z" fill="#00524c"/>
      <path d="M61.273,162.757c-1.607,0-3.144-.919-3.855-2.477-.972-2.128-.035-4.641,2.093-5.613l17.941-8.196c2.129-.972,4.641-.036,5.613,2.093.972,2.128.035,4.641-2.093,5.613l-17.941,8.196c-.571.261-1.169.384-1.758.384Z" fill="#00524c"/>
    </g>
  </g>
</svg>