<?xml version="1.0" encoding="UTF-8"?>
<svg id="Master" xmlns="http://www.w3.org/2000/svg" viewBox="0 0 256 256">
  <g id="JUNTA">
    <rect id="background" x="0" y="0" width="256" height="256" fill="#e6e6dc"/>
    <g id="vector">
      <path d="M195.481,208h-110.481c-2.761,0-5-2.239-5-5s2.239-5,5-5h110.481c1.365,0,2.519-.891,2.519-1.944v-36.111c0-1.054-1.154-1.944-2.519-1.944H60.519c-1.365,0-2.519.891-2.519,1.944v27.056c0,2.761-2.239,5-5,5s-5-2.239-5-5v-27.056c0-6.586,5.616-11.944,12.519-11.944h134.962c6.903,0,12.519,5.358,12.519,11.944v36.111c0,6.586-5.616,11.944-12.519,11.944Z" fill="#00524c"/>
      <path d="M191.472,108h-32.472c-2.761,0-5-2.239-5-5s2.239-5,5-5h32.472c1.394,0,2.528-1.134,2.528-2.528v-44.944c0-1.394-1.134-2.528-2.528-2.528h-32.954c-1.389,0-2.519,1.13-2.519,2.519v20.481c0,2.761-2.239,5-5,5s-5-2.239-5-5v-20.481c0-6.903,5.616-12.519,12.519-12.519h32.954c6.908,0,12.528,5.62,12.528,12.528v44.944c0,6.908-5.62,12.528-12.528,12.528Z" fill="#00524c"/>
      <path d="M97.472,109h-32.472c-2.761,0-5-2.239-5-5s2.239-5,5-5h32.472c1.394,0,2.528-1.134,2.528-2.528v-44.944c0-1.394-1.134-2.528-2.528-2.528h-32.954c-1.389,0-2.519,1.13-2.519,2.519v20.481c0,2.761-2.239,5-5,5s-5-2.239-5-5v-20.481c0-6.903,5.616-12.519,12.519-12.519h32.954c6.908,0,12.528,5.62,12.528,12.528v44.944c0,6.908-5.62,12.528-12.528,12.528Z" fill="#00524c"/>
      <path d="M94,135h-24c-2.761,0-5-2.239-5-5s2.239-5,5-5h24c2.761,0,5,2.239,5,5s-2.239,5-5,5Z" fill="#00524c"/>
      <path d="M187,134h-23c-2.761,0-5-2.239-5-5s2.239-5,5-5h23c2.761,0,5,2.239,5,5s-2.239,5-5,5Z" fill="#00524c"/>
    </g>
  </g>
</svg>