<?xml version="1.0" encoding="UTF-8"?>
<svg id="Master" xmlns="http://www.w3.org/2000/svg" viewBox="0 0 256 256">
  <g id="LVDT">
    <rect id="background" x="0" y="0" width="256" height="256" fill="#e6e6dc"/>
    <g id="vector">
      <path d="M211.82,80.6l-93.62,93.62c-.98.97-2.26,1.46-3.54,1.46s-2.56-.49-3.53-1.46c-1.95-1.96-1.95-5.12,0-7.07l83.44-83.44-7.07-7.07c-1.96-1.96-1.96-5.12,0-7.08,1.95-1.95,5.11-1.95,7.07,0l7.07,7.07,3.11-3.11c3.35-3.35,3.35-8.8,0-12.16l-9.76-9.76c-3.35-3.35-8.81-3.35-12.16,0l-80.8,80.81c-.03.03-.06.06-.09.09l-.71.7,7.08,7.08,19.79-19.8c1.95-1.96,5.12-1.96,7.07,0,1.95,1.95,1.95,5.11,0,7.07l-79.9,79.9c-.98.98-2.26,1.47-3.54,1.47s-2.56-.49-3.53-1.47c-1.96-1.95-1.96-5.12,0-7.07l53.03-53.03-7.07-7.07-4.95,4.95c-.98.97-2.26,1.46-3.54,1.46s-2.56-.49-3.53-1.46c-1.96-1.96-1.96-5.12,0-7.08l8.37-8.36,4.36-4.36,80.89-80.9c7.25-7.25,19.05-7.25,26.3,0l9.76,9.76c7.25,7.25,7.25,19.05,0,26.31Z" fill="#00524c"/>
    </g>
  </g>
</svg>