<?xml version="1.0" encoding="UTF-8"?>
<svg id="Master" xmlns="http://www.w3.org/2000/svg" viewBox="0 0 256 256">
  <g id="METE">
    <rect id="background" x="0" y="0" width="256" height="256" fill="#e6e6dc"/>
    <g id="vector">
      <path d="M163,181h-70c-2.761,0-5-2.238-5-5s2.239-5,5-5h70c2.761,0,5,2.238,5,5s-2.239,5-5,5Z" fill="#00524c"/>
      <path d="M185.87,104.94c13.65,0,24.76-12.32,24.76-27.47s-11.11-27.47-24.76-27.47h-.03c-10.52.01-19.52,7.34-23.08,17.64v-.59h-9.85c-4.11-10-13.95-17.05-25.41-17.05-11.31,0-21.05,6.87-25.25,16.66h-6.62c-3.79-9.78-12.55-16.65-22.73-16.66h-.03c-13.65,0-24.76,12.32-24.76,27.47s11.11,27.47,24.76,27.47h.03c13.64-.02,24.73-12.33,24.73-27.47,0-.27,0-.54-.02-.81h2.44c-.02.27-.02.54-.02.81,0,11.63,7.26,21.86,17.97,25.78v26.56h-42.78c-8.94,0-16.22,7.28-16.22,16.23v45.74c0,8.94,7.28,16.22,16.22,16.22h104.56c8.94,0,16.22-7.28,16.22-16.22v-45.74c0-8.95-7.28-16.23-16.22-16.23h-30.78c-2.76,0-5,2.24-5,5s2.24,5,5,5h30.78c3.43,0,6.22,2.79,6.22,6.23v45.74c0,3.43-2.79,6.22-6.22,6.22h-104.56c-3.43,0-6.22-2.79-6.22-6.22v-45.74c0-3.44,2.79-6.23,6.22-6.23h47.78c2.76,0,5-2.24,5-5,0-.13,0-.26-.02-.38v-.02c.01-.13.02-.27.02-.41v-34c0-1.88-1.04-3.51-2.57-4.37l-.02-.02c-.59-.56-1.34-.98-2.19-1.19-7.77-1.96-13.19-8.93-13.19-16.95,0-9.63,7.84-17.47,17.47-17.47s17.47,7.84,17.47,17.47c0,4.04-1.33,7.83-3.86,10.96-1.74,2.15-1.4,5.3.75,7.03,2.15,1.73,5.3,1.4,7.03-.75,3.92-4.86,6.08-10.98,6.08-17.24,0-.14,0-.28-.01-.42h6.16c-.01.14-.01.28-.01.42,0,15.15,11.11,27.47,24.76,27.47ZM189.98,60.7c6.15,2.1,10.65,8.83,10.65,16.77s-4.5,14.67-10.65,16.77c-.85-5.7-1.26-11.47-1.24-17.22.02-5.45.44-10.92,1.24-16.32ZM179.77,61.58c-.67,5.11-1.01,10.26-1.03,15.4-.02,5.47.32,10.95,1.03,16.39-5.11-2.75-8.66-8.84-8.66-15.9s3.55-13.15,8.66-15.89ZM68.76,94.24c-6.15-2.1-10.65-8.82-10.65-16.77s4.51-14.68,10.66-16.77c.8,5.4,1.21,10.87,1.23,16.32.02,5.75-.39,11.52-1.24,17.22ZM78.97,93.37c.71-5.44,1.05-10.92,1.03-16.39-.02-5.14-.36-10.29-1.03-15.4,5.11,2.74,8.66,8.83,8.66,15.89s-3.55,13.15-8.66,15.9Z" fill="#00524c"/>
    </g>
  </g>
</svg>