<?xml version="1.0" encoding="UTF-8"?>
<svg id="Master" xmlns="http://www.w3.org/2000/svg" viewBox="0 0 256 256">
  <g id="NAMC">
    <rect id="background" x="0" y="0" width="256" height="256" fill="#e6e6dc"/>
    <g id="vector">
      <path d="M193.05,44.95c-14.42-14.43-37.9-14.43-52.32,0-8.4,8.4-12.27,20.42-10.35,32.16.44,2.72,3.01,4.57,5.74,4.12,2.72-.44,4.57-3.01,4.13-5.74-1.4-8.57,1.42-17.34,7.55-23.47,10.53-10.53,27.66-10.53,38.18,0,5.1,5.1,7.91,11.88,7.91,19.09s-2.81,13.99-7.91,19.09-11.88,7.91-19.09,7.91-13.99-2.81-19.09-7.91c-1.95-1.95-5.12-1.95-7.07,0l-49.5,49.5-4.24-4.24c-.94-.94-2.21-1.47-3.54-1.47-1.32,0-2.6.53-3.53,1.47l-41.72,41.72c-.94.93-1.47,2.2-1.47,3.53s.53,2.6,1.47,3.54l4.24,4.24-7.78,7.78c-1.95,1.95-1.95,5.12,0,7.07.98.97,2.26,1.46,3.54,1.46s2.56-.49,3.53-1.46l7.78-7.78,4.95,4.95c.98.98,2.26,1.46,3.54,1.46s2.56-.48,3.53-1.46l41.72-41.72c1.95-1.95,1.95-5.12,0-7.07l-4.95-4.95,4.24-4.24,4.95,4.95c.98.97,2.26,1.46,3.54,1.46s2.56-.49,3.53-1.46c1.96-1.96,1.96-5.12,0-7.07l-4.95-4.95,34.89-34.89c6.41,4.89,14.2,7.54,22.39,7.54,9.88,0,19.18-3.85,26.16-10.84,6.99-6.99,10.84-16.28,10.84-26.16s-3.85-19.18-10.84-26.16ZM58,189.9l-9.2-9.19,34.65-34.65,9.19,9.19-34.64,34.65Z" fill="#00524c"/>
      <path d="M117.394,73.281c-1.28,0-2.559-.488-3.536-1.464l-4.243-4.243c-1.953-1.953-1.953-5.119,0-7.071,1.953-1.952,5.118-1.952,7.071,0l4.243,4.243c1.953,1.953,1.953,5.119,0,7.071-.977.976-2.256,1.464-3.536,1.464Z" fill="#00524c"/>
      <path d="M161.234,29.44c-1.28,0-2.559-.488-3.536-1.464l-4.243-4.243c-1.953-1.953-1.953-5.119,0-7.071,1.953-1.952,5.118-1.952,7.071,0l4.243,4.243c1.953,1.953,1.953,5.119,0,7.071-.977.976-2.256,1.464-3.536,1.464Z" fill="#00524c"/>
      <path d="M173.962,129.849c-1.28,0-2.559-.488-3.536-1.464l-4.243-4.243c-1.953-1.953-1.953-5.119,0-7.071,1.953-1.952,5.118-1.952,7.071,0l4.243,4.243c1.953,1.953,1.953,5.119,0,7.071-.977.976-2.256,1.464-3.536,1.464Z" fill="#00524c"/>
      <path d="M217.803,86.009c-1.28,0-2.559-.488-3.536-1.464l-4.243-4.243c-1.953-1.953-1.953-5.119,0-7.071,1.953-1.952,5.118-1.952,7.071,0l4.243,4.243c1.953,1.953,1.953,5.119,0,7.071-.977.976-2.256,1.464-3.536,1.464Z" fill="#00524c"/>
    </g>
  </g>
</svg>