<?xml version="1.0" encoding="UTF-8"?>
<svg id="Master" xmlns="http://www.w3.org/2000/svg" viewBox="0 0 256 256">
  <g id="SFBG">
    <rect id="background" x="0" y="0" width="256" height="256" fill="#e6e6dc"/>
    <g id="vector">
      <path d="M214.51,73.98l-36.03,36.03c-2.78,2.78-7.07,3.15-10.25,1.11l-62.39,62.36-4.25,4.25c2.03,3.2,1.66,7.51-1.14,10.31l-17.48,17.48c-3.53,3.52-8.8,4.26-13.06,2.23l-10.68,5.37c-1.18.59-2.45.88-3.71.88-2.14,0-4.24-.83-5.83-2.41l-9.12-9.13c-2.25-2.25-3.01-5.63-1.92-8.63l4.55-12.61c-2.23-4.28-1.56-9.7,2.03-13.29l17.6-17.6c2.78-2.78,7.07-3.15,10.26-1.11l37.91-37.88,28.73-28.73c-2.04-3.2-1.67-7.51,1.13-10.31l25.21-25.2c1.95-1.95,5.12-1.95,7.07,0,1.95,1.95,1.95,5.12,0,7.07l-24.13,24.12c2.06,3.18,1.7,7.48-1.08,10.26l-29.86,29.86-35.44,35.41-3.59,3.59c-2.78,2.77-7.07,3.14-10.25,1.11l-16.49,16.48c-.53.53-.52,1.4.02,1.94l2.24,2.25-6.13,16.99,7.44,7.44,15.38-7.74,2.56,2.55c.38.39.82.44,1.05.44.25-.01.68-.07,1.04-.42l16.4-16.4c-2.06-3.18-1.7-7.48,1.08-10.26l5.39-5.39,35.45-35.42,28.06-28.04c2.78-2.78,7.07-3.15,10.25-1.12l34.91-34.91c.54-.54.54-1.42,0-1.96l-14.42-14.41c-1.95-1.96-1.95-5.12,0-7.08,1.96-1.95,5.12-1.95,7.08,0l14.41,14.42c4.44,4.44,4.44,11.66,0,16.1Z" fill="#00524c"/>
    </g>
  </g>
</svg>