<?xml version="1.0" encoding="UTF-8"?>
<svg id="Master" xmlns="http://www.w3.org/2000/svg" viewBox="0 0 256 256">
  <g id="WHDT">
    <rect id="background" x="0" y="0" width="256" height="256" fill="#e6e6dc"/>
    <g id="vector">
      <path d="M61,192c-2.761,0-5-2.238-5-5v-58c0-2.762,2.239-5,5-5s5,2.238,5,5v58c0,2.762-2.239,5-5,5Z" fill="#00524c"/>
      <path d="M179,208h-102c-2.761,0-5-2.238-5-5s2.239-5,5-5h102c2.761,0,5,2.238,5,5s-2.239,5-5,5Z" fill="#00524c"/>
      <path d="M195,192c-2.761,0-5-2.238-5-5v-77c0-2.762,2.239-5,5-5s5,2.238,5,5v77c0,2.762-2.239,5-5,5Z" fill="#00524c"/>
      <path d="M178.809,89h-2.809s0-20.23,0-20.23c5.221-3.503,8.517-9.672,7.947-16.547-.702-8.468-7.421-15.441-15.864-16.396-10.852-1.227-20.086,7.296-20.086,17.932,0,5.81,2.743,10.98,7.003,14.28v20.96h-21.149c-.648,0-1.285.05-1.913.14-.01,0-.03,0-.04.01-6.163.93-10.898,6.21-10.898,12.55v5.175c0,.622-.504,1.125-1.125,1.125h-44.383c-.608,0-1.194.253-1.609.698-3.987,4.272-1.019,9.302,3.117,9.302h48.707c2.923,0,5.293-2.37,5.293-5.293v-11.007c0-1.491,1.209-2.7,2.7-2.7h45.3c3.099,0,5.543-2.824,4.895-6.038-.474-2.355-2.684-3.962-5.086-3.962ZM165.5,88.806h0c-1.381,0-2.5-1.119-2.5-2.5v-11.723c0-1.381,1.119-2.5,2.5-2.5h0c1.381,0,2.5,1.119,2.5,2.5v11.723c0,1.381-1.119,2.5-2.5,2.5ZM167.17,61.667c-5.645,1.051-10.513-3.829-9.44-9.477.601-3.165,3.151-5.718,6.315-6.327,5.686-1.094,10.598,3.855,9.474,9.526-.626,3.156-3.186,5.689-6.349,6.278Z" fill="#00524c"/>
      <circle cx="61.5" cy="113.5" r="5.5" fill="#00524c"/>
      <circle cx="61.5" cy="203.5" r="5.5" fill="#00524c"/>
      <circle cx="195.5" cy="94.5" r="5.5" fill="#00524c"/>
      <circle cx="195.5" cy="203.5" r="5.5" fill="#00524c"/>
    </g>
  </g>
</svg>