<?xml version="1.0" encoding="UTF-8"?>
<svg id="Capa_2" data-name="Capa 2" xmlns="http://www.w3.org/2000/svg" viewBox="0 0 256 256">
  <g id="capa">
    <g id="logo">
      <g id="sener">
        <rect width="256" height="256" fill="#00205b"/>
        <g id="energia">
          <path d="M97.385,204.505c-1.248,0-2.412-.783-2.84-2.03-.537-1.568.298-3.276,1.867-3.814,10.551-3.616,17.255-13.244,15.939-22.89-.223-1.643.926-3.157,2.57-3.381,1.658-.217,3.157.927,3.381,2.569,1.701,12.482-6.686,24.838-19.943,29.383-.322.11-.651.163-.973.163h0Z" fill="#fff"/>
          <path d="M74.826,201.541c.1,1.66-1.16,3.08-2.82,3.17-.44.03-.88.04-1.31.04-7.28,0-14.2-3.52-17.89-9.2-.62-.95-1.1-1.84-1.48-2.73-2.02-4.74-1.83-9.89.53-14.49,1.4-2.72,1.52-5.75.33-8.54-.72-1.68-1.86-3.16-3.4-4.4-1.29-1.05-1.49-2.94-.45-4.23s2.93-1.49,4.22-.44c2.31,1.86,4.04,4.12,5.15,6.71,1.9,4.46,1.72,9.31-.51,13.64-1.53,2.99-1.66,6.33-.35,9.39.24.57.57,1.16.99,1.82,2.76,4.24,8.2,6.78,13.82,6.44,1.66-.1,3.07,1.17,3.17,2.82Z" fill="#fff"/>
          <path d="M82.457,163.313s.006.007.009.011c4.949,5.221,7.356,11.912,6.778,18.839-.074.879-.195,1.75-.364,2.608,3.776-3.311,6.155-7.772,6.565-12.679v-.133c.002-.132.004-.265.01-.398.267-5.031-1.566-9.885-5.163-13.678-4.188-4.419-6.224-10.081-5.733-15.944.025-.3.056-.601.095-.9-2.727,2.04-4.738,4.79-5.708,7.944-.307.998-.505,2.017-.59,3.028-.345,4.132,1.111,8.145,4.099,11.302h0ZM82.815,194.781c-1.234,0-2.422-.763-2.87-2.094-.302-.897-.073-1.878.436-2.676,1.66-2.602,2.627-5.408,2.873-8.348.434-5.194-1.392-10.236-5.143-14.198-.004-.003-.007-.008-.01-.012-4.187-4.418-6.223-10.079-5.733-15.942.121-1.44.401-2.884.834-4.292,2.158-7.022,7.952-12.556,15.51-14.82.856-.257,1.812-.168,2.559.322,1.372.901,1.746,2.628,1.014,3.969-.992,1.819-1.58,3.753-1.746,5.75-.346,4.135,1.112,8.152,4.106,11.311,4.742,5.001,7.158,11.435,6.802,18.118v.133c-.002.195-.007.39-.023.587-.823,9.859-7.553,18.289-17.564,22.005-.341.126-.694.187-1.044.187h0Z" fill="#fff"/>
        </g>
        <path id="ave" d="M121.716,63.03c-.03,1.05-.61,2-1.51,2.51l-7.89,4.49c4.45,14,1.13,23.16-2.57,28.47-5.44,7.79-15.42,12.44-26.72,12.44-2.76,0-5.87-.95-9.17-1.95-7.13-2.17-14.5-4.4-20.33,1.13-.58.55-1.33.82-2.07.82-.79,0-1.59-.31-2.18-.94-1.14-1.2-1.09-3.1.11-4.24,8.37-7.94,18.68-4.8,26.21-2.52,2.86.87,5.57,1.69,7.43,1.69,9.33,0,17.48-3.68,21.79-9.86,4.44-6.36,4.8-15.14,1.03-25.38-.51-1.38.06-2.92,1.33-3.65l6.55-3.72c-.47-.57-.93-1.15-1.38-1.72-2.59-3.33-4.83-6.19-10.17-6.19-5.17,0-7.92,4.66-8.91,6.8,1.29,2.68,2.32,5.56,3.09,8.61.4,1.61-.57,3.24-2.18,3.65-1.6.4-3.24-.57-3.64-2.18-.76-3.02-1.82-5.84-3.14-8.43-.05-.09-.1-.19-.15-.28-3.42-6.57-8.54-11.56-14.76-14.2-5.58-2.37-11.35-2.53-16.57-.52l14.75,21.42c2.48,3.24,5.37,10.93-1.09,17.4-.59.58-1.36.88-2.13.88s-1.53-.3-2.12-.88c-1.17-1.18-1.17-3.08,0-4.25,4.29-4.29.93-9.03.53-9.55-.03-.04-.07-.09-.09-.13l-16.78-24.38c-.48-.69-.64-1.55-.46-2.37.19-.82.71-1.52,1.44-1.94,7.49-4.3,16.56-4.74,24.87-1.21,5.98,2.54,11.1,6.83,14.98,12.4,2.3-3.26,6.22-6.85,12.36-6.85,8.27,0,12.1,4.91,14.9,8.5,1.13,1.44,2.2,2.81,3.29,3.53.87.57,1.39,1.56,1.35,2.6Z" fill="#fff"/>
        <g id="naval">
          <path d="M207.236,163.991c.12-.02.24-.04.35-.07-.05.02-.11.04-.17.05-.06.01-.12.02-.18.02Z" fill="#fff"/>
          <path d="M212.995,181.811h-15.007c-3.989,0-7.777-1.985-9.869-5.382-6.576-10.675,1.004-21.812,11.135-21.812.739,0,1.477.06,2.196.18-3.354-6.079-9.334-9.354-17.36-9.354-12.548,0-22.761,10.213-22.761,22.771,0,7.597-6.262,13.758-13.895,13.594-.854-.018-1.674-.436-2.135-1.156-1.502-2.348.179-4.84,2.433-4.84,4.183,0,7.597-3.404,7.597-7.597,0-15.863,12.898-28.761,28.761-28.761,13.187,0,22.711,7.607,25.516,20.365.01.02.01.03.02.04.02.08.04.16.05.24.019.1.039.19.05.29.01.11.02.219.02.329,0,.42-.09.849-.27,1.238-.03.08-.07.15-.11.22-.13.23-.299.459-.499.659-.039.04-.079.08-.13.12-.259.23-.549.409-.858.539-.11.04-.22.08-.339.11-.11.03-.23.05-.35.07-.15.03-.299.039-.439.039-.12,0-.23-.01-.35-.019-.08-.01-.15-.02-.219-.04-.622-.12-1.22-.431-1.678-.947-.444-.501-.971-.934-1.574-1.225-7.221-3.482-14.307,4.088-9.924,11.285,1.17,1.922,3.31,3.045,5.56,3.045h14.204c2.251,0,3.941,2.515,2.402,4.873-.473.724-1.313,1.127-2.177,1.127Z" fill="#fff"/>
          <path d="M177.862,186.936c-.694,0-1.391-.239-1.957-.727-6.83-5.878-8.622-14.632-4.36-21.288.896-1.397,2.753-1.803,4.148-.909,1.396.895,1.803,2.751.909,4.148-2.608,4.071-1.284,9.622,3.22,13.498,1.257,1.082,1.399,2.978.316,4.234-.593.69-1.433,1.044-2.276,1.044h0Z" fill="#fff"/>
          <path d="M212.795,206.811h-64.947c-1.473,0-2.838-.994-3.098-2.444-.34-1.902,1.112-3.556,2.951-3.556h65.004c1.308,0,2.55.787,2.94,2.035.647,2.067-.879,3.965-2.85,3.965h0Z" fill="#fff"/>
        </g>
        <path id="informatica" d="M215.636,73.961c1.42-.88,1.85-2.75.97-4.17-.88-1.41-2.75-1.85-4.17-.96-4.97,3.1-10.521,5.28-16.76,6.56-.16-10.36-1.99-20.63-5.42-27.3,6.67,2.16,12.45,6.62,16.31,12.81.57.93,1.56,1.43,2.57,1.43.54,0,1.1-.15,1.59-.46,1.42-.88,1.86-2.74.97-4.16-6.58-10.58-17.87-16.96-30.27-17.14-.19-.01-.37-.01-.56-.01s-.37,0-.56.01c-12.4.18-23.69,6.56-30.27,17.14-.89,1.42-.45,3.28.97,4.16,1.42.89,3.28.45,4.16-.97,3.85-6.19,9.63-10.65,16.311-12.81-3.43,6.67-5.26,16.939-5.42,27.3-6.24-1.28-11.79-3.46-16.76-6.56-1.42-.89-3.29-.45-4.17.96-.88,1.42-.45,3.29.97,4.17,5.95,3.71,12.59,6.24,20.07,7.62.45,9.21,2.24,18.06,5.29,24.03-9.479-3.12-17.07-10.84-19.77-20.86-.43-1.61-2.09-2.57-3.71-2.14-1.61.44-2.561,2.1-2.13,3.71,4.21,15.66,18.39,26.66,34.57,26.85.15.01.3.01.45.01s.3,0,.45-.01c16.18-.19,30.36-11.19,34.57-26.85.43-1.61-.52-3.27-2.14-3.71-1.61-.43-3.27.53-3.7,2.14-2.7,10.02-10.29,17.74-19.77,20.86,3.05-5.97,4.84-14.82,5.29-24.03,7.48-1.38,14.12-3.91,20.07-7.62ZM180.746,46.61c.04-.01.08-.01.12-.01s.08,0,.12.01c2.97.27,8.55,10.73,8.64,29.73-2.79.31-5.71.46-8.76.46s-5.97-.15-8.76-.46c.09-19,5.66-29.46,8.64-29.73ZM180.996,106.811c-.05.01-.09.01-.13.01s-.08,0-.13-.01h-.06c-2.71-.38-7.47-9.03-8.41-24.69,2.76.28,5.62.42,8.6.42s5.84-.14,8.6-.42c-.94,15.66-5.71,24.31-8.41,24.69h-.06Z" fill="#fff"/>
      </g>
    </g>
  </g>
</svg>